<?xml version="1.0" encoding="utf-8"?>
<svg xmlns="http://www.w3.org/2000/svg" xmlns:xlink="http://www.w3.org/1999/xlink" width="1056" height="528" viewBox="0 0 4224 2112">
<defs>
  <clipPath id="clip270">
    <rect x="0" y="0" width="4224" height="2112"/>
  </clipPath>
</defs>
<path clip-path="url(#clip270)" d="M0 2112 L4224 2112 L4224 0 L0 0  Z" fill="#ffffff" fill-rule="evenodd" fill-opacity="1"/>
<defs>
  <clipPath id="clip271">
    <rect x="844" y="0" width="2958" height="2112"/>
  </clipPath>
</defs>
<path clip-path="url(#clip270)" d="M212.176 2001.97 L4176.76 2001.97 L4176.76 47.2441 L212.176 47.2441  Z" fill="#ffffff" fill-rule="evenodd" fill-opacity="1"/>
<defs>
  <clipPath id="clip272">
    <rect x="212" y="47" width="3966" height="1956"/>
  </clipPath>
</defs>
<polyline clip-path="url(#clip272)" style="stroke:#000000; stroke-linecap:round; stroke-linejoin:round; stroke-width:2; stroke-opacity:0.1; fill:none" points="324.323,2001.97 324.323,47.2441 "/>
<polyline clip-path="url(#clip272)" style="stroke:#000000; stroke-linecap:round; stroke-linejoin:round; stroke-width:2; stroke-opacity:0.1; fill:none" points="1259.39,2001.97 1259.39,47.2441 "/>
<polyline clip-path="url(#clip272)" style="stroke:#000000; stroke-linecap:round; stroke-linejoin:round; stroke-width:2; stroke-opacity:0.1; fill:none" points="2194.47,2001.97 2194.47,47.2441 "/>
<polyline clip-path="url(#clip272)" style="stroke:#000000; stroke-linecap:round; stroke-linejoin:round; stroke-width:2; stroke-opacity:0.1; fill:none" points="3129.54,2001.97 3129.54,47.2441 "/>
<polyline clip-path="url(#clip272)" style="stroke:#000000; stroke-linecap:round; stroke-linejoin:round; stroke-width:2; stroke-opacity:0.1; fill:none" points="4064.61,2001.97 4064.61,47.2441 "/>
<polyline clip-path="url(#clip272)" style="stroke:#000000; stroke-linecap:round; stroke-linejoin:round; stroke-width:2; stroke-opacity:0.1; fill:none" points="212.176,1946.67 4176.76,1946.67 "/>
<polyline clip-path="url(#clip272)" style="stroke:#000000; stroke-linecap:round; stroke-linejoin:round; stroke-width:2; stroke-opacity:0.1; fill:none" points="212.176,1485.64 4176.76,1485.64 "/>
<polyline clip-path="url(#clip272)" style="stroke:#000000; stroke-linecap:round; stroke-linejoin:round; stroke-width:2; stroke-opacity:0.1; fill:none" points="212.176,1024.61 4176.76,1024.61 "/>
<polyline clip-path="url(#clip272)" style="stroke:#000000; stroke-linecap:round; stroke-linejoin:round; stroke-width:2; stroke-opacity:0.1; fill:none" points="212.176,563.572 4176.76,563.572 "/>
<polyline clip-path="url(#clip272)" style="stroke:#000000; stroke-linecap:round; stroke-linejoin:round; stroke-width:2; stroke-opacity:0.1; fill:none" points="212.176,102.538 4176.76,102.538 "/>
<polyline clip-path="url(#clip270)" style="stroke:#000000; stroke-linecap:round; stroke-linejoin:round; stroke-width:4; stroke-opacity:1; fill:none" points="212.176,2001.97 4176.76,2001.97 "/>
<polyline clip-path="url(#clip270)" style="stroke:#000000; stroke-linecap:round; stroke-linejoin:round; stroke-width:4; stroke-opacity:1; fill:none" points="324.323,2001.97 324.323,1983.07 "/>
<polyline clip-path="url(#clip270)" style="stroke:#000000; stroke-linecap:round; stroke-linejoin:round; stroke-width:4; stroke-opacity:1; fill:none" points="1259.39,2001.97 1259.39,1983.07 "/>
<polyline clip-path="url(#clip270)" style="stroke:#000000; stroke-linecap:round; stroke-linejoin:round; stroke-width:4; stroke-opacity:1; fill:none" points="2194.47,2001.97 2194.47,1983.07 "/>
<polyline clip-path="url(#clip270)" style="stroke:#000000; stroke-linecap:round; stroke-linejoin:round; stroke-width:4; stroke-opacity:1; fill:none" points="3129.54,2001.97 3129.54,1983.07 "/>
<polyline clip-path="url(#clip270)" style="stroke:#000000; stroke-linecap:round; stroke-linejoin:round; stroke-width:4; stroke-opacity:1; fill:none" points="4064.61,2001.97 4064.61,1983.07 "/>
<path clip-path="url(#clip270)" d="M270.851 2062.13 L300.527 2062.13 L300.527 2066.07 L270.851 2066.07 L270.851 2062.13 Z" fill="#000000" fill-rule="nonzero" fill-opacity="1" /><path clip-path="url(#clip270)" d="M311.429 2075.02 L319.068 2075.02 L319.068 2048.66 L310.758 2050.33 L310.758 2046.07 L319.022 2044.4 L323.698 2044.4 L323.698 2075.02 L331.337 2075.02 L331.337 2078.96 L311.429 2078.96 L311.429 2075.02 Z" fill="#000000" fill-rule="nonzero" fill-opacity="1" /><path clip-path="url(#clip270)" d="M340.781 2073.08 L345.665 2073.08 L345.665 2078.96 L340.781 2078.96 L340.781 2073.08 Z" fill="#000000" fill-rule="nonzero" fill-opacity="1" /><path clip-path="url(#clip270)" d="M365.85 2047.48 Q362.239 2047.48 360.411 2051.04 Q358.605 2054.59 358.605 2061.71 Q358.605 2068.82 360.411 2072.39 Q362.239 2075.93 365.85 2075.93 Q369.485 2075.93 371.29 2072.39 Q373.119 2068.82 373.119 2061.71 Q373.119 2054.59 371.29 2051.04 Q369.485 2047.48 365.85 2047.48 M365.85 2043.77 Q371.661 2043.77 374.716 2048.38 Q377.795 2052.96 377.795 2061.71 Q377.795 2070.44 374.716 2075.05 Q371.661 2079.63 365.85 2079.63 Q360.04 2079.63 356.962 2075.05 Q353.906 2070.44 353.906 2061.71 Q353.906 2052.96 356.962 2048.38 Q360.04 2043.77 365.85 2043.77 Z" fill="#000000" fill-rule="nonzero" fill-opacity="1" /><path clip-path="url(#clip270)" d="M1206.42 2062.13 L1236.1 2062.13 L1236.1 2066.07 L1206.42 2066.07 L1206.42 2062.13 Z" fill="#000000" fill-rule="nonzero" fill-opacity="1" /><path clip-path="url(#clip270)" d="M1256.19 2047.48 Q1252.58 2047.48 1250.75 2051.04 Q1248.94 2054.59 1248.94 2061.71 Q1248.94 2068.82 1250.75 2072.39 Q1252.58 2075.93 1256.19 2075.93 Q1259.82 2075.93 1261.63 2072.39 Q1263.46 2068.82 1263.46 2061.71 Q1263.46 2054.59 1261.63 2051.04 Q1259.82 2047.48 1256.19 2047.48 M1256.19 2043.77 Q1262 2043.77 1265.05 2048.38 Q1268.13 2052.96 1268.13 2061.71 Q1268.13 2070.44 1265.05 2075.05 Q1262 2079.63 1256.19 2079.63 Q1250.38 2079.63 1247.3 2075.05 Q1244.24 2070.44 1244.24 2061.71 Q1244.24 2052.96 1247.3 2048.38 Q1250.38 2043.77 1256.19 2043.77 Z" fill="#000000" fill-rule="nonzero" fill-opacity="1" /><path clip-path="url(#clip270)" d="M1276.35 2073.08 L1281.23 2073.08 L1281.23 2078.96 L1276.35 2078.96 L1276.35 2073.08 Z" fill="#000000" fill-rule="nonzero" fill-opacity="1" /><path clip-path="url(#clip270)" d="M1291.47 2044.4 L1309.82 2044.4 L1309.82 2048.34 L1295.75 2048.34 L1295.75 2056.81 Q1296.77 2056.46 1297.79 2056.3 Q1298.8 2056.11 1299.82 2056.11 Q1305.61 2056.11 1308.99 2059.28 Q1312.37 2062.46 1312.37 2067.87 Q1312.37 2073.45 1308.9 2076.55 Q1305.42 2079.63 1299.1 2079.63 Q1296.93 2079.63 1294.66 2079.26 Q1292.42 2078.89 1290.01 2078.15 L1290.01 2073.45 Q1292.09 2074.58 1294.31 2075.14 Q1296.54 2075.7 1299.01 2075.7 Q1303.02 2075.7 1305.35 2073.59 Q1307.69 2071.48 1307.69 2067.87 Q1307.69 2064.26 1305.35 2062.15 Q1303.02 2060.05 1299.01 2060.05 Q1297.14 2060.05 1295.26 2060.46 Q1293.41 2060.88 1291.47 2061.76 L1291.47 2044.4 Z" fill="#000000" fill-rule="nonzero" fill-opacity="1" /><path clip-path="url(#clip270)" d="M2171.85 2047.48 Q2168.24 2047.48 2166.41 2051.04 Q2164.61 2054.59 2164.61 2061.71 Q2164.61 2068.82 2166.41 2072.39 Q2168.24 2075.93 2171.85 2075.93 Q2175.48 2075.93 2177.29 2072.39 Q2179.12 2068.82 2179.12 2061.71 Q2179.12 2054.59 2177.29 2051.04 Q2175.48 2047.48 2171.85 2047.48 M2171.85 2043.77 Q2177.66 2043.77 2180.72 2048.38 Q2183.79 2052.96 2183.79 2061.71 Q2183.79 2070.44 2180.72 2075.05 Q2177.66 2079.63 2171.85 2079.63 Q2166.04 2079.63 2162.96 2075.05 Q2159.91 2070.44 2159.91 2061.71 Q2159.91 2052.96 2162.96 2048.38 Q2166.04 2043.77 2171.85 2043.77 Z" fill="#000000" fill-rule="nonzero" fill-opacity="1" /><path clip-path="url(#clip270)" d="M2192.01 2073.08 L2196.9 2073.08 L2196.9 2078.96 L2192.01 2078.96 L2192.01 2073.08 Z" fill="#000000" fill-rule="nonzero" fill-opacity="1" /><path clip-path="url(#clip270)" d="M2217.08 2047.48 Q2213.47 2047.48 2211.64 2051.04 Q2209.84 2054.59 2209.84 2061.71 Q2209.84 2068.82 2211.64 2072.39 Q2213.47 2075.93 2217.08 2075.93 Q2220.72 2075.93 2222.52 2072.39 Q2224.35 2068.82 2224.35 2061.71 Q2224.35 2054.59 2222.52 2051.04 Q2220.72 2047.48 2217.08 2047.48 M2217.08 2043.77 Q2222.89 2043.77 2225.95 2048.38 Q2229.03 2052.96 2229.03 2061.71 Q2229.03 2070.44 2225.95 2075.05 Q2222.89 2079.63 2217.08 2079.63 Q2211.27 2079.63 2208.19 2075.05 Q2205.14 2070.44 2205.14 2061.71 Q2205.14 2052.96 2208.19 2048.38 Q2211.27 2043.77 2217.08 2043.77 Z" fill="#000000" fill-rule="nonzero" fill-opacity="1" /><path clip-path="url(#clip270)" d="M3107.42 2047.48 Q3103.81 2047.48 3101.98 2051.04 Q3100.17 2054.59 3100.17 2061.71 Q3100.17 2068.82 3101.98 2072.39 Q3103.81 2075.93 3107.42 2075.93 Q3111.05 2075.93 3112.86 2072.39 Q3114.69 2068.82 3114.69 2061.71 Q3114.69 2054.59 3112.86 2051.04 Q3111.05 2047.48 3107.42 2047.48 M3107.42 2043.77 Q3113.23 2043.77 3116.29 2048.38 Q3119.36 2052.96 3119.36 2061.71 Q3119.36 2070.44 3116.29 2075.05 Q3113.23 2079.63 3107.42 2079.63 Q3101.61 2079.63 3098.53 2075.05 Q3095.48 2070.44 3095.48 2061.71 Q3095.48 2052.96 3098.53 2048.38 Q3101.61 2043.77 3107.42 2043.77 Z" fill="#000000" fill-rule="nonzero" fill-opacity="1" /><path clip-path="url(#clip270)" d="M3127.58 2073.08 L3132.47 2073.08 L3132.47 2078.96 L3127.58 2078.96 L3127.58 2073.08 Z" fill="#000000" fill-rule="nonzero" fill-opacity="1" /><path clip-path="url(#clip270)" d="M3142.7 2044.4 L3161.05 2044.4 L3161.05 2048.34 L3146.98 2048.34 L3146.98 2056.81 Q3148 2056.46 3149.02 2056.3 Q3150.04 2056.11 3151.05 2056.11 Q3156.84 2056.11 3160.22 2059.28 Q3163.6 2062.46 3163.6 2067.87 Q3163.6 2073.45 3160.13 2076.55 Q3156.66 2079.63 3150.34 2079.63 Q3148.16 2079.63 3145.89 2079.26 Q3143.65 2078.89 3141.24 2078.15 L3141.24 2073.45 Q3143.32 2074.58 3145.54 2075.14 Q3147.77 2075.7 3150.24 2075.7 Q3154.25 2075.7 3156.59 2073.59 Q3158.92 2071.48 3158.92 2067.87 Q3158.92 2064.26 3156.59 2062.15 Q3154.25 2060.05 3150.24 2060.05 Q3148.37 2060.05 3146.49 2060.46 Q3144.64 2060.88 3142.7 2061.76 L3142.7 2044.4 Z" fill="#000000" fill-rule="nonzero" fill-opacity="1" /><path clip-path="url(#clip270)" d="M4031.76 2075.02 L4039.4 2075.02 L4039.4 2048.66 L4031.09 2050.33 L4031.09 2046.07 L4039.35 2044.4 L4044.03 2044.4 L4044.03 2075.02 L4051.67 2075.02 L4051.67 2078.96 L4031.76 2078.96 L4031.76 2075.02 Z" fill="#000000" fill-rule="nonzero" fill-opacity="1" /><path clip-path="url(#clip270)" d="M4061.11 2073.08 L4066 2073.08 L4066 2078.96 L4061.11 2078.96 L4061.11 2073.08 Z" fill="#000000" fill-rule="nonzero" fill-opacity="1" /><path clip-path="url(#clip270)" d="M4086.18 2047.48 Q4082.57 2047.48 4080.74 2051.04 Q4078.94 2054.59 4078.94 2061.71 Q4078.94 2068.82 4080.74 2072.39 Q4082.57 2075.93 4086.18 2075.93 Q4089.82 2075.93 4091.62 2072.39 Q4093.45 2068.82 4093.45 2061.71 Q4093.45 2054.59 4091.62 2051.04 Q4089.82 2047.48 4086.18 2047.48 M4086.18 2043.77 Q4091.99 2043.77 4095.05 2048.38 Q4098.13 2052.96 4098.13 2061.71 Q4098.13 2070.44 4095.05 2075.05 Q4091.99 2079.63 4086.18 2079.63 Q4080.37 2079.63 4077.29 2075.05 Q4074.24 2070.44 4074.24 2061.71 Q4074.24 2052.96 4077.29 2048.38 Q4080.37 2043.77 4086.18 2043.77 Z" fill="#000000" fill-rule="nonzero" fill-opacity="1" /><polyline clip-path="url(#clip270)" style="stroke:#000000; stroke-linecap:round; stroke-linejoin:round; stroke-width:4; stroke-opacity:1; fill:none" points="212.176,2001.97 212.176,47.2441 "/>
<polyline clip-path="url(#clip270)" style="stroke:#000000; stroke-linecap:round; stroke-linejoin:round; stroke-width:4; stroke-opacity:1; fill:none" points="212.176,1946.67 231.074,1946.67 "/>
<polyline clip-path="url(#clip270)" style="stroke:#000000; stroke-linecap:round; stroke-linejoin:round; stroke-width:4; stroke-opacity:1; fill:none" points="212.176,1485.64 231.074,1485.64 "/>
<polyline clip-path="url(#clip270)" style="stroke:#000000; stroke-linecap:round; stroke-linejoin:round; stroke-width:4; stroke-opacity:1; fill:none" points="212.176,1024.61 231.074,1024.61 "/>
<polyline clip-path="url(#clip270)" style="stroke:#000000; stroke-linecap:round; stroke-linejoin:round; stroke-width:4; stroke-opacity:1; fill:none" points="212.176,563.572 231.074,563.572 "/>
<polyline clip-path="url(#clip270)" style="stroke:#000000; stroke-linecap:round; stroke-linejoin:round; stroke-width:4; stroke-opacity:1; fill:none" points="212.176,102.538 231.074,102.538 "/>
<path clip-path="url(#clip270)" d="M41.8721 1947.13 L71.5479 1947.13 L71.5479 1951.06 L41.8721 1951.06 L41.8721 1947.13 Z" fill="#000000" fill-rule="nonzero" fill-opacity="1" /><path clip-path="url(#clip270)" d="M82.4506 1960.02 L90.0895 1960.02 L90.0895 1933.65 L81.7793 1935.32 L81.7793 1931.06 L90.0432 1929.39 L94.7191 1929.39 L94.7191 1960.02 L102.358 1960.02 L102.358 1963.95 L82.4506 1963.95 L82.4506 1960.02 Z" fill="#000000" fill-rule="nonzero" fill-opacity="1" /><path clip-path="url(#clip270)" d="M111.802 1958.07 L116.687 1958.07 L116.687 1963.95 L111.802 1963.95 L111.802 1958.07 Z" fill="#000000" fill-rule="nonzero" fill-opacity="1" /><path clip-path="url(#clip270)" d="M136.872 1932.47 Q133.261 1932.47 131.432 1936.04 Q129.626 1939.58 129.626 1946.71 Q129.626 1953.82 131.432 1957.38 Q133.261 1960.92 136.872 1960.92 Q140.506 1960.92 142.311 1957.38 Q144.14 1953.82 144.14 1946.71 Q144.14 1939.58 142.311 1936.04 Q140.506 1932.47 136.872 1932.47 M136.872 1928.77 Q142.682 1928.77 145.737 1933.38 Q148.816 1937.96 148.816 1946.71 Q148.816 1955.44 145.737 1960.04 Q142.682 1964.63 136.872 1964.63 Q131.061 1964.63 127.983 1960.04 Q124.927 1955.44 124.927 1946.71 Q124.927 1937.96 127.983 1933.38 Q131.061 1928.77 136.872 1928.77 Z" fill="#000000" fill-rule="nonzero" fill-opacity="1" /><path clip-path="url(#clip270)" d="M42.8675 1486.09 L72.5433 1486.09 L72.5433 1490.03 L42.8675 1490.03 L42.8675 1486.09 Z" fill="#000000" fill-rule="nonzero" fill-opacity="1" /><path clip-path="url(#clip270)" d="M92.6357 1471.44 Q89.0247 1471.44 87.196 1475 Q85.3904 1478.55 85.3904 1485.67 Q85.3904 1492.78 87.196 1496.35 Q89.0247 1499.89 92.6357 1499.89 Q96.27 1499.89 98.0755 1496.35 Q99.9042 1492.78 99.9042 1485.67 Q99.9042 1478.55 98.0755 1475 Q96.27 1471.44 92.6357 1471.44 M92.6357 1467.74 Q98.4459 1467.74 101.501 1472.34 Q104.58 1476.92 104.58 1485.67 Q104.58 1494.4 101.501 1499.01 Q98.4459 1503.59 92.6357 1503.59 Q86.8256 1503.59 83.7469 1499.01 Q80.6914 1494.4 80.6914 1485.67 Q80.6914 1476.92 83.7469 1472.34 Q86.8256 1467.74 92.6357 1467.74 Z" fill="#000000" fill-rule="nonzero" fill-opacity="1" /><path clip-path="url(#clip270)" d="M112.798 1497.04 L117.682 1497.04 L117.682 1502.92 L112.798 1502.92 L112.798 1497.04 Z" fill="#000000" fill-rule="nonzero" fill-opacity="1" /><path clip-path="url(#clip270)" d="M127.913 1468.36 L146.27 1468.36 L146.27 1472.3 L132.196 1472.3 L132.196 1480.77 Q133.214 1480.42 134.233 1480.26 Q135.251 1480.07 136.27 1480.07 Q142.057 1480.07 145.436 1483.24 Q148.816 1486.42 148.816 1491.83 Q148.816 1497.41 145.344 1500.51 Q141.872 1503.59 135.552 1503.59 Q133.376 1503.59 131.108 1503.22 Q128.862 1502.85 126.455 1502.11 L126.455 1497.41 Q128.538 1498.55 130.761 1499.1 Q132.983 1499.66 135.46 1499.66 Q139.464 1499.66 141.802 1497.55 Q144.14 1495.44 144.14 1491.83 Q144.14 1488.22 141.802 1486.11 Q139.464 1484.01 135.46 1484.01 Q133.585 1484.01 131.71 1484.42 Q129.858 1484.84 127.913 1485.72 L127.913 1468.36 Z" fill="#000000" fill-rule="nonzero" fill-opacity="1" /><path clip-path="url(#clip270)" d="M91.6404 1010.4 Q88.0293 1010.4 86.2006 1013.97 Q84.395 1017.51 84.395 1024.64 Q84.395 1031.75 86.2006 1035.31 Q88.0293 1038.85 91.6404 1038.85 Q95.2746 1038.85 97.0802 1035.31 Q98.9089 1031.75 98.9089 1024.64 Q98.9089 1017.51 97.0802 1013.97 Q95.2746 1010.4 91.6404 1010.4 M91.6404 1006.7 Q97.4505 1006.7 100.506 1011.31 Q103.585 1015.89 103.585 1024.64 Q103.585 1033.37 100.506 1037.97 Q97.4505 1042.56 91.6404 1042.56 Q85.8302 1042.56 82.7515 1037.97 Q79.696 1033.37 79.696 1024.64 Q79.696 1015.89 82.7515 1011.31 Q85.8302 1006.7 91.6404 1006.7 Z" fill="#000000" fill-rule="nonzero" fill-opacity="1" /><path clip-path="url(#clip270)" d="M111.802 1036.01 L116.687 1036.01 L116.687 1041.89 L111.802 1041.89 L111.802 1036.01 Z" fill="#000000" fill-rule="nonzero" fill-opacity="1" /><path clip-path="url(#clip270)" d="M136.872 1010.4 Q133.261 1010.4 131.432 1013.97 Q129.626 1017.51 129.626 1024.64 Q129.626 1031.75 131.432 1035.31 Q133.261 1038.85 136.872 1038.85 Q140.506 1038.85 142.311 1035.31 Q144.14 1031.75 144.14 1024.64 Q144.14 1017.51 142.311 1013.97 Q140.506 1010.4 136.872 1010.4 M136.872 1006.7 Q142.682 1006.7 145.737 1011.31 Q148.816 1015.89 148.816 1024.64 Q148.816 1033.37 145.737 1037.97 Q142.682 1042.56 136.872 1042.56 Q131.061 1042.56 127.983 1037.97 Q124.927 1033.37 124.927 1024.64 Q124.927 1015.89 127.983 1011.31 Q131.061 1006.7 136.872 1006.7 Z" fill="#000000" fill-rule="nonzero" fill-opacity="1" /><path clip-path="url(#clip270)" d="M92.6357 549.371 Q89.0247 549.371 87.196 552.935 Q85.3904 556.477 85.3904 563.607 Q85.3904 570.713 87.196 574.278 Q89.0247 577.819 92.6357 577.819 Q96.27 577.819 98.0755 574.278 Q99.9042 570.713 99.9042 563.607 Q99.9042 556.477 98.0755 552.935 Q96.27 549.371 92.6357 549.371 M92.6357 545.667 Q98.4459 545.667 101.501 550.273 Q104.58 554.857 104.58 563.607 Q104.58 572.333 101.501 576.94 Q98.4459 581.523 92.6357 581.523 Q86.8256 581.523 83.7469 576.94 Q80.6914 572.333 80.6914 563.607 Q80.6914 554.857 83.7469 550.273 Q86.8256 545.667 92.6357 545.667 Z" fill="#000000" fill-rule="nonzero" fill-opacity="1" /><path clip-path="url(#clip270)" d="M112.798 574.972 L117.682 574.972 L117.682 580.852 L112.798 580.852 L112.798 574.972 Z" fill="#000000" fill-rule="nonzero" fill-opacity="1" /><path clip-path="url(#clip270)" d="M127.913 546.292 L146.27 546.292 L146.27 550.227 L132.196 550.227 L132.196 558.699 Q133.214 558.352 134.233 558.19 Q135.251 558.005 136.27 558.005 Q142.057 558.005 145.436 561.176 Q148.816 564.347 148.816 569.764 Q148.816 575.343 145.344 578.444 Q141.872 581.523 135.552 581.523 Q133.376 581.523 131.108 581.153 Q128.862 580.782 126.455 580.042 L126.455 575.343 Q128.538 576.477 130.761 577.032 Q132.983 577.588 135.46 577.588 Q139.464 577.588 141.802 575.482 Q144.14 573.375 144.14 569.764 Q144.14 566.153 141.802 564.046 Q139.464 561.94 135.46 561.94 Q133.585 561.94 131.71 562.357 Q129.858 562.773 127.913 563.653 L127.913 546.292 Z" fill="#000000" fill-rule="nonzero" fill-opacity="1" /><path clip-path="url(#clip270)" d="M82.4506 115.883 L90.0895 115.883 L90.0895 89.517 L81.7793 91.1836 L81.7793 86.9244 L90.0432 85.2577 L94.7191 85.2577 L94.7191 115.883 L102.358 115.883 L102.358 119.818 L82.4506 119.818 L82.4506 115.883 Z" fill="#000000" fill-rule="nonzero" fill-opacity="1" /><path clip-path="url(#clip270)" d="M111.802 113.938 L116.687 113.938 L116.687 119.818 L111.802 119.818 L111.802 113.938 Z" fill="#000000" fill-rule="nonzero" fill-opacity="1" /><path clip-path="url(#clip270)" d="M136.872 88.3364 Q133.261 88.3364 131.432 91.9012 Q129.626 95.4429 129.626 102.572 Q129.626 109.679 131.432 113.244 Q133.261 116.785 136.872 116.785 Q140.506 116.785 142.311 113.244 Q144.14 109.679 144.14 102.572 Q144.14 95.4429 142.311 91.9012 Q140.506 88.3364 136.872 88.3364 M136.872 84.6327 Q142.682 84.6327 145.737 89.2392 Q148.816 93.8225 148.816 102.572 Q148.816 111.299 145.737 115.906 Q142.682 120.489 136.872 120.489 Q131.061 120.489 127.983 115.906 Q124.927 111.299 124.927 102.572 Q124.927 93.8225 127.983 89.2392 Q131.061 84.6327 136.872 84.6327 Z" fill="#000000" fill-rule="nonzero" fill-opacity="1" /><path clip-path="url(#clip272)" d="M2194.47 1024.61 L2253.5 966.418 L2312.48 908.463 L2371.34 850.97 L2430.03 794.169 L2488.48 738.287 L2546.64 683.547 L2604.44 630.165 L2661.84 578.357 L2718.77 528.327 L2775.18 480.275 L2831.01 434.394 L2886.2 390.865 L2940.71 349.862 L2994.47 311.549 L3047.44 276.079 L3099.55 243.592 L3150.76 214.219 L3201.02 188.076 L3250.28 165.268 L3298.48 145.885 L3345.58 130.005 L3391.54 117.692 L3436.3 108.993 L3479.82 103.945 L3522.07 102.566 L3562.98 104.864 L3602.54 110.827 L3640.69 120.433 L3677.4 133.643 L3712.63 150.405 L3746.35 170.652 L3778.52 194.303 L3809.11 221.264 L3838.1 251.427 L3865.44 284.672 L3891.12 320.867 L3915.11 359.867 L3937.38 401.517 L3957.91 445.65 L3976.69 492.092 L3993.69 540.656 L4008.9 591.15 L4022.3 643.371 L4033.87 697.113 L4043.62 752.159 L4051.52 808.292 L4057.56 865.287 L4061.76 922.917 L4064.08 980.953 L4064.55 1039.16 L4063.15 1097.31 L4059.89 1155.18 L4054.77 1212.52 L4047.8 1269.11 L4038.97 1324.73 L4028.31 1379.15 L4015.83 1432.15 L4001.52 1483.54 L3985.42 1533.09 L3967.52 1580.62 L3947.87 1625.93 L3926.46 1668.84 L3903.33 1709.19 L3878.49 1746.8 L3851.98 1781.54 L3823.81 1813.26 L3794.02 1841.84 L3762.63 1867.15 L3729.68 1889.11 L3695.2 1907.63 L3659.23 1922.62 L3621.79 1934.04 L3582.94 1941.82 L3542.69 1945.96 L3501.11 1946.42 L3458.22 1943.2 L3414.07 1936.32 L3368.71 1925.81 L3322.17 1911.71 L3274.51 1894.07 L3225.78 1872.96 L3176.01 1848.48 L3125.27 1820.7 L3073.6 1789.76 L3021.06 1755.76 L2967.69 1718.85 L2913.55 1679.17 L2858.69 1636.89 L2803.17 1592.16 L2747.04 1545.17 L2690.37 1496.11 L2633.19 1445.16 L2575.59 1392.54 L2517.6 1338.45 L2459.29 1283.11 L2400.71 1226.74 L2341.93 1169.57 L2283 1111.82 L2223.99 1053.71 L2164.94 995.498 L2105.93 937.397 L2047 879.644 L1988.22 822.469 L1929.65 766.099 L1871.33 710.76 L1813.35 656.673 L1755.74 604.051 L1698.57 553.107 L1641.89 504.042 L1585.76 457.052 L1530.24 412.324 L1475.39 370.037 L1421.24 330.36 L1367.87 293.449 L1315.33 259.454 L1263.66 228.509 L1212.92 200.737 L1163.15 176.249 L1114.42 155.143 L1066.76 137.503 L1020.23 123.399 L974.862 112.888 L930.713 106.011 L887.825 102.796 L846.239 103.256 L805.997 107.388 L767.138 115.177 L729.703 126.591 L693.728 141.584 L659.249 160.098 L626.3 182.057 L594.914 207.376 L565.123 235.952 L536.956 267.672 L510.441 302.409 L485.605 340.025 L462.472 380.371 L441.066 423.284 L421.408 468.594 L403.517 516.121 L387.411 565.675 L373.107 617.058 L360.618 670.065 L349.957 724.486 L341.135 780.104 L334.16 836.696 L329.04 894.037 L325.779 951.899 L324.381 1010.05 L324.847 1068.26 L327.177 1126.29 L331.368 1183.92 L337.416 1240.92 L345.316 1297.05 L355.058 1352.1 L366.635 1405.84 L380.033 1458.06 L395.24 1508.56 L412.24 1557.12 L431.017 1603.56 L451.552 1647.7 L473.824 1689.35 L497.812 1728.35 L523.49 1764.54 L550.835 1797.79 L579.818 1827.95 L610.41 1854.91 L642.581 1878.56 L676.299 1898.81 L711.531 1915.57 L748.241 1928.78 L786.392 1938.39 L825.947 1944.35 L866.866 1946.65 L909.109 1945.27 L952.633 1940.22 L997.394 1931.52 L1043.35 1919.21 L1090.45 1903.33 L1138.65 1883.94 L1187.91 1861.14 L1238.17 1834.99 L1289.38 1805.62 L1341.5 1773.13 L1394.46 1737.66 L1448.22 1699.35 L1502.73 1658.35 L1557.92 1614.82 L1613.75 1568.94 L1670.16 1520.89 L1727.09 1470.86 L1784.49 1419.05 L1842.3 1365.67 L1900.45 1310.92 L1958.9 1255.04 L2017.59 1198.24 L2076.45 1140.75 L2135.43 1082.79 L2194.47 1024.61 L2194.47 1024.61 L2135.43 1024.61 L2076.45 1024.61 L2017.59 1024.61 L1958.9 1024.61 L1900.45 1024.61 L1842.3 1024.61 L1784.49 1024.61 L1727.09 1024.61 L1670.16 1024.61 L1613.75 1024.61 L1557.92 1024.61 L1502.73 1024.61 L1448.22 1024.61 L1394.46 1024.61 L1341.5 1024.61 L1289.38 1024.61 L1238.17 1024.61 L1187.91 1024.61 L1138.65 1024.61 L1090.45 1024.61 L1043.35 1024.61 L997.394 1024.61 L952.633 1024.61 L909.109 1024.61 L866.866 1024.61 L825.947 1024.61 L786.392 1024.61 L748.241 1024.61 L711.531 1024.61 L676.299 1024.61 L642.581 1024.61 L610.41 1024.61 L579.818 1024.61 L550.835 1024.61 L523.49 1024.61 L497.812 1024.61 L473.824 1024.61 L451.552 1024.61 L431.017 1024.61 L412.24 1024.61 L395.24 1024.61 L380.033 1024.61 L366.635 1024.61 L355.058 1024.61 L345.316 1024.61 L337.416 1024.61 L331.368 1024.61 L327.177 1024.61 L324.847 1024.61 L324.381 1024.61 L325.779 1024.61 L329.04 1024.61 L334.16 1024.61 L341.135 1024.61 L349.957 1024.61 L360.618 1024.61 L373.107 1024.61 L387.411 1024.61 L403.517 1024.61 L421.408 1024.61 L441.066 1024.61 L462.472 1024.61 L485.605 1024.61 L510.441 1024.61 L536.956 1024.61 L565.123 1024.61 L594.914 1024.61 L626.3 1024.61 L659.249 1024.61 L693.728 1024.61 L729.703 1024.61 L767.138 1024.61 L805.997 1024.61 L846.239 1024.61 L887.825 1024.61 L930.713 1024.61 L974.862 1024.61 L1020.23 1024.61 L1066.76 1024.61 L1114.42 1024.61 L1163.15 1024.61 L1212.92 1024.61 L1263.66 1024.61 L1315.33 1024.61 L1367.87 1024.61 L1421.24 1024.61 L1475.39 1024.61 L1530.24 1024.61 L1585.76 1024.61 L1641.89 1024.61 L1698.57 1024.61 L1755.74 1024.61 L1813.35 1024.61 L1871.33 1024.61 L1929.65 1024.61 L1988.22 1024.61 L2047 1024.61 L2105.93 1024.61 L2164.94 1024.61 L2223.99 1024.61 L2283 1024.61 L2341.93 1024.61 L2400.71 1024.61 L2459.29 1024.61 L2517.6 1024.61 L2575.59 1024.61 L2633.19 1024.61 L2690.37 1024.61 L2747.04 1024.61 L2803.17 1024.61 L2858.69 1024.61 L2913.55 1024.61 L2967.69 1024.61 L3021.06 1024.61 L3073.6 1024.61 L3125.27 1024.61 L3176.01 1024.61 L3225.78 1024.61 L3274.51 1024.61 L3322.17 1024.61 L3368.71 1024.61 L3414.07 1024.61 L3458.22 1024.61 L3501.11 1024.61 L3542.69 1024.61 L3582.94 1024.61 L3621.79 1024.61 L3659.23 1024.61 L3695.2 1024.61 L3729.68 1024.61 L3762.63 1024.61 L3794.02 1024.61 L3823.81 1024.61 L3851.98 1024.61 L3878.49 1024.61 L3903.33 1024.61 L3926.46 1024.61 L3947.87 1024.61 L3967.52 1024.61 L3985.42 1024.61 L4001.52 1024.61 L4015.83 1024.61 L4028.31 1024.61 L4038.97 1024.61 L4047.8 1024.61 L4054.77 1024.61 L4059.89 1024.61 L4063.15 1024.61 L4064.55 1024.61 L4064.08 1024.61 L4061.76 1024.61 L4057.56 1024.61 L4051.52 1024.61 L4043.62 1024.61 L4033.87 1024.61 L4022.3 1024.61 L4008.9 1024.61 L3993.69 1024.61 L3976.69 1024.61 L3957.91 1024.61 L3937.38 1024.61 L3915.11 1024.61 L3891.12 1024.61 L3865.44 1024.61 L3838.1 1024.61 L3809.11 1024.61 L3778.52 1024.61 L3746.35 1024.61 L3712.63 1024.61 L3677.4 1024.61 L3640.69 1024.61 L3602.54 1024.61 L3562.98 1024.61 L3522.07 1024.61 L3479.82 1024.61 L3436.3 1024.61 L3391.54 1024.61 L3345.58 1024.61 L3298.48 1024.61 L3250.28 1024.61 L3201.02 1024.61 L3150.76 1024.61 L3099.55 1024.61 L3047.44 1024.61 L2994.47 1024.61 L2940.71 1024.61 L2886.2 1024.61 L2831.01 1024.61 L2775.18 1024.61 L2718.77 1024.61 L2661.84 1024.61 L2604.44 1024.61 L2546.64 1024.61 L2488.48 1024.61 L2430.03 1024.61 L2371.34 1024.61 L2312.48 1024.61 L2253.5 1024.61 L2194.47 1024.61  Z" fill="#e6e6fa" fill-rule="evenodd" fill-opacity="1"/>
<polyline clip-path="url(#clip272)" style="stroke:#009af9; stroke-linecap:round; stroke-linejoin:round; stroke-width:4; stroke-opacity:1; fill:none" points="2194.47,1024.61 2253.5,966.418 2312.48,908.463 2371.34,850.97 2430.03,794.169 2488.48,738.287 2546.64,683.547 2604.44,630.165 2661.84,578.357 2718.77,528.327 2775.18,480.275 2831.01,434.394 2886.2,390.865 2940.71,349.862 2994.47,311.549 3047.44,276.079 3099.55,243.592 3150.76,214.219 3201.02,188.076 3250.28,165.268 3298.48,145.885 3345.58,130.005 3391.54,117.692 3436.3,108.993 3479.82,103.945 3522.07,102.566 3562.98,104.864 3602.54,110.827 3640.69,120.433 3677.4,133.643 3712.63,150.405 3746.35,170.652 3778.52,194.303 3809.11,221.264 3838.1,251.427 3865.44,284.672 3891.12,320.867 3915.11,359.867 3937.38,401.517 3957.91,445.65 3976.69,492.092 3993.69,540.656 4008.9,591.15 4022.3,643.371 4033.87,697.113 4043.62,752.159 4051.52,808.292 4057.56,865.287 4061.76,922.917 4064.08,980.953 4064.55,1039.16 4063.15,1097.31 4059.89,1155.18 4054.77,1212.52 4047.8,1269.11 4038.97,1324.73 4028.31,1379.15 4015.83,1432.15 4001.52,1483.54 3985.42,1533.09 3967.52,1580.62 3947.87,1625.93 3926.46,1668.84 3903.33,1709.19 3878.49,1746.8 3851.98,1781.54 3823.81,1813.26 3794.02,1841.84 3762.63,1867.15 3729.68,1889.11 3695.2,1907.63 3659.23,1922.62 3621.79,1934.04 3582.94,1941.82 3542.69,1945.96 3501.11,1946.42 3458.22,1943.2 3414.07,1936.32 3368.71,1925.81 3322.17,1911.71 3274.51,1894.07 3225.78,1872.96 3176.01,1848.48 3125.27,1820.7 3073.6,1789.76 3021.06,1755.76 2967.69,1718.85 2913.55,1679.17 2858.69,1636.89 2803.17,1592.16 2747.04,1545.17 2690.37,1496.11 2633.19,1445.16 2575.59,1392.54 2517.6,1338.45 2459.29,1283.11 2400.71,1226.74 2341.93,1169.57 2283,1111.82 2223.99,1053.71 2164.94,995.498 2105.93,937.397 2047,879.644 1988.22,822.469 1929.65,766.099 1871.33,710.76 1813.35,656.673 1755.74,604.051 1698.57,553.107 1641.89,504.042 1585.76,457.052 1530.24,412.324 1475.39,370.037 1421.24,330.36 1367.87,293.449 1315.33,259.454 1263.66,228.509 1212.92,200.737 1163.15,176.249 1114.42,155.143 1066.76,137.503 1020.23,123.399 974.862,112.888 930.713,106.011 887.825,102.796 846.239,103.256 805.997,107.388 767.138,115.177 729.703,126.591 693.728,141.584 659.249,160.098 626.3,182.057 594.914,207.376 565.123,235.952 536.956,267.672 510.441,302.409 485.605,340.025 462.472,380.371 441.066,423.284 421.408,468.594 403.517,516.121 387.411,565.675 373.107,617.058 360.618,670.065 349.957,724.486 341.135,780.104 334.16,836.696 329.04,894.037 325.779,951.899 324.381,1010.05 324.847,1068.26 327.177,1126.29 331.368,1183.92 337.416,1240.92 345.316,1297.05 355.058,1352.1 366.635,1405.84 380.033,1458.06 395.24,1508.56 412.24,1557.12 431.017,1603.56 451.552,1647.7 473.824,1689.35 497.812,1728.35 523.49,1764.54 550.835,1797.79 579.818,1827.95 610.41,1854.91 642.581,1878.56 676.299,1898.81 711.531,1915.57 748.241,1928.78 786.392,1938.39 825.947,1944.35 866.866,1946.65 909.109,1945.27 952.633,1940.22 997.394,1931.52 1043.35,1919.21 1090.45,1903.33 1138.65,1883.94 1187.91,1861.14 1238.17,1834.99 1289.38,1805.62 1341.5,1773.13 1394.46,1737.66 1448.22,1699.35 1502.73,1658.35 1557.92,1614.82 1613.75,1568.94 1670.16,1520.89 1727.09,1470.86 1784.49,1419.05 1842.3,1365.67 1900.45,1310.92 1958.9,1255.04 2017.59,1198.24 2076.45,1140.75 2135.43,1082.79 2194.47,1024.61 "/>
</svg>
